<!DOCTYPE svg PUBLIC "-//W3C//DTD SVG 20010904//EN" "http://www.w3.org/TR/2001/REC-SVG-20010904/DTD/svg10.dtd">
<svg version="1.0" xmlns="http://www.w3.org/2000/svg" width="1200px" height="849px" viewBox="0 0 12000 8490" preserveAspectRatio="xMidYMid meet">
<g id="layer101" fill="#010101" stroke="none">
 <path d="M0 4245 l0 -4245 6000 0 6000 0 0 4245 0 4245 -6000 0 -6000 0 0 -4245z"/>
 </g>
<g id="layer102" fill="#847f80" stroke="none">
 <path d="M0 4245 l0 -4245 6000 0 6000 0 0 4245 0 4245 -6000 0 -6000 0 0 -4245z m2255 619 c25 -10 45 -58 45 -108 0 -25 -18 -101 -40 -170 -65 -207 -106 -383 -135 -588 -25 -175 -18 -278 19 -278 18 0 57 90 101 235 119 389 179 542 238 603 41 42 83 44 98 5 22 -57 -8 -232 -77 -448 -37 -116 -95 -389 -115 -538 -6 -48 -9 -130 -7 -181 4 -122 17 -140 98 -134 70 5 154 45 300 144 120 81 171 104 229 104 47 0 77 -21 91 -64 17 -52 -6 -97 -67 -131 -153 -87 -190 -113 -251 -174 -38 -37 -103 -120 -146 -184 -113 -170 -218 -247 -408 -299 -72 -20 -107 -23 -265 -23 -100 0 -184 2 -186 5 -3 3 -1 32 5 65 6 41 5 88 -2 145 -11 82 -29 142 -139 460 -27 80 -57 183 -66 230 -23 121 -21 293 5 418 29 142 96 344 134 400 28 42 77 74 91 60 3 -3 -3 -30 -15 -60 -28 -77 -58 -219 -65 -313 -8 -115 6 -77 60 160 72 313 102 401 158 453 30 28 53 26 78 -8 18 -25 18 -27 -16 -125 -58 -169 -96 -385 -94 -530 l1 -70 19 110 c37 214 61 322 100 453 60 202 151 382 194 382 7 0 21 -3 30 -6z m1661 -326 c8 -5 8 -25 2 -65 -18 -113 11 -243 115 -528 126 -345 140 -527 63 -825 -56 -220 -115 -342 -172 -356 -14 -4 -27 -4 -29 -2 -3 3 6 36 19 74 31 89 53 199 61 299 8 112 -6 75 -60 -164 -71 -310 -101 -396 -158 -449 -30 -28 -53 -26 -78 8 -19 25 -19 26 15 120 51 143 87 332 92 480 l4 125 -35 -195 c-54 -307 -148 -597 -230 -704 -36 -47 -62 -55 -95 -28 -19 15 -24 31 -28 78 -3 49 2 79 33 169 125 376 197 885 125 885 -20 0 -52 -69 -96 -210 -170 -543 -224 -660 -306 -660 -39 0 -52 35 -43 125 7 79 45 243 81 349 67 201 127 550 122 709 -3 102 -5 110 -28 129 -55 44 -182 0 -369 -130 -120 -82 -163 -102 -227 -102 -58 0 -88 23 -97 75 -10 58 14 89 107 140 167 91 251 170 362 342 119 184 263 272 514 317 39 7 324 2 336 -6z"/>
 </g>
<g id="layer103" fill="#8b8585" stroke="none">
 <path d="M0 4245 l0 -4245 6000 0 6000 0 0 4245 0 4245 -6000 0 -6000 0 0 -4245z m5506 1693 c53 -134 97 -253 97 -265 -1 -13 2 -21 6 -18 9 5 271 -647 265 -657 -3 -5 -65 -8 -137 -8 l-132 0 -149 403 c-82 221 -151 405 -155 409 -4 5 -40 -82 -81 -192 -40 -110 -77 -200 -81 -200 -4 0 -7 -8 -6 -17 1 -24 -124 -363 -133 -358 -4 2 -6 -6 -6 -18 1 -22 -2 -22 -141 -25 -79 -1 -143 1 -143 5 0 20 34 92 41 87 5 -3 6 1 4 8 -4 11 83 234 412 1051 l15 37 113 0 112 0 99 -242z m1965 226 c30 -9 71 -25 92 -36 48 -24 129 -97 121 -109 -3 -5 -1 -9 4 -9 14 0 40 -64 52 -129 19 -108 -17 -230 -86 -290 -41 -36 -109 -73 -118 -64 -3 4 -6 1 -6 -6 0 -7 -4 -10 -9 -7 -5 4 -11 2 -13 -3 -1 -6 -68 -29 -147 -51 -158 -45 -215 -70 -231 -99 -11 -22 -13 -71 -4 -95 9 -24 64 -54 115 -61 74 -11 211 32 305 94 l31 21 57 -85 c31 -46 57 -87 56 -91 -1 -4 4 -10 10 -14 13 -8 -54 -60 -77 -60 -7 0 -13 -4 -13 -9 0 -5 -28 -20 -62 -34 -162 -64 -356 -68 -482 -9 -86 40 -130 82 -168 160 -30 60 -33 75 -33 157 0 78 4 97 28 147 48 97 125 144 333 203 199 56 247 81 259 137 9 37 -8 77 -43 103 -23 17 -43 20 -137 20 -103 0 -114 -2 -178 -32 -38 -18 -82 -43 -99 -55 -18 -12 -42 -22 -54 -22 -22 0 -64 29 -64 44 0 4 -20 29 -45 56 -25 27 -45 52 -45 57 0 41 300 191 347 173 7 -3 15 -1 18 4 10 17 225 12 286 -6z m-4569 -366 l3 -372 45 59 c168 223 264 345 271 345 5 0 8 4 7 8 -2 4 52 81 120 170 l123 162 110 0 109 0 0 -574 c0 -509 -2 -576 -16 -590 -12 -13 -39 -16 -130 -16 l-114 0 -2 356 -3 355 -85 -113 c-47 -62 -97 -125 -112 -141 -15 -15 -27 -30 -27 -33 1 -10 -164 -224 -173 -224 -4 0 -8 -5 -8 -10 0 -15 -80 -120 -91 -120 -5 0 -8 -3 -7 -7 1 -5 -6 -20 -16 -35 l-18 -28 -124 0 -124 0 0 583 c0 321 3 587 7 590 3 4 62 7 130 7 l123 0 2 -372z m1488 -218 l0 -590 -130 0 -130 0 0 590 0 590 130 0 130 0 0 -590z m2070 0 l0 -590 -130 0 -130 0 0 590 0 590 130 0 130 0 0 -590z m1920 355 l0 -235 235 0 235 0 2 233 3 232 128 3 127 3 0 -591 0 -590 -130 0 -130 0 0 235 0 235 -235 0 -235 0 0 -235 0 -235 -130 0 -130 0 0 590 0 590 130 0 130 0 0 -235z m2060 120 l0 -115 -315 0 -315 0 0 -125 0 -125 275 0 275 0 0 -115 0 -115 -275 0 -275 0 0 -120 0 -120 315 0 315 0 0 -115 0 -115 -445 0 -445 0 0 590 0 590 445 0 445 0 0 -115z m-8185 -1191 c25 -10 45 -58 45 -108 0 -25 -18 -101 -40 -170 -65 -207 -106 -383 -135 -588 -25 -175 -18 -278 19 -278 18 0 57 90 101 235 119 389 179 542 238 603 41 42 83 44 98 5 22 -57 -8 -232 -77 -448 -37 -116 -95 -389 -115 -538 -6 -48 -9 -130 -7 -181 4 -122 17 -140 98 -134 70 5 154 45 300 144 120 81 171 104 229 104 47 0 77 -21 91 -64 17 -52 -6 -97 -67 -131 -153 -87 -190 -113 -251 -174 -38 -37 -103 -120 -146 -184 -113 -170 -218 -247 -408 -299 -72 -20 -107 -23 -265 -23 -100 0 -184 2 -186 5 -3 3 -1 32 5 65 6 41 5 88 -2 145 -11 82 -29 142 -139 460 -27 80 -57 183 -66 230 -23 121 -21 293 5 418 29 142 96 344 134 400 28 42 77 74 91 61 3 -3 -4 -32 -15 -65 -34 -98 -85 -392 -65 -372 4 3 29 99 56 213 77 327 107 412 162 463 30 28 53 26 78 -8 18 -25 18 -27 -16 -125 -41 -119 -70 -255 -84 -395 -19 -178 -11 -210 14 -60 57 341 162 664 249 768 28 32 41 37 71 26z m1661 -326 c8 -5 8 -25 2 -65 -18 -113 11 -243 115 -528 126 -345 140 -527 63 -825 -56 -220 -115 -342 -172 -356 -34 -9 -37 -4 -18 47 34 98 84 372 70 387 -2 2 -27 -95 -56 -215 -79 -331 -106 -408 -163 -461 -30 -28 -53 -26 -78 8 -19 25 -19 26 15 120 41 114 71 256 86 405 20 188 7 194 -23 12 -60 -366 -202 -743 -283 -755 -11 -2 -31 6 -44 16 -19 15 -24 31 -28 78 -3 49 2 79 33 169 125 376 197 885 125 885 -20 0 -52 -69 -96 -210 -170 -543 -224 -660 -306 -660 -39 0 -52 35 -43 125 7 79 45 243 81 349 67 201 127 550 122 709 -3 102 -5 110 -28 129 -55 44 -182 0 -369 -130 -120 -82 -163 -102 -227 -102 -58 0 -88 23 -97 75 -10 58 14 89 107 140 167 91 251 170 362 342 119 184 263 272 514 317 39 7 324 2 336 -6z"/>
 <path d="M5134 5428 c-4 -7 -3 -8 4 -4 7 4 12 9 12 12 0 8 -9 4 -16 -8z"/>
 </g>
<g id="layer104" fill="#ffffff" stroke="none">
 <path d="M0 4245 l0 -4245 6000 0 6000 0 0 4245 0 4245 -6000 0 -6000 0 0 -4245z m5433 1873 c13 -35 119 -300 236 -590 116 -290 211 -530 211 -533 0 -3 -62 -5 -138 -5 l-137 0 -149 403 c-82 221 -151 405 -155 409 -4 4 -75 -176 -157 -400 l-151 -407 -141 -3 c-78 -1 -142 1 -142 6 0 5 104 267 231 583 127 316 233 580 236 587 4 8 37 12 118 12 l113 0 25 -62z m2038 46 c157 -47 242 -136 269 -282 8 -45 8 -79 0 -119 -29 -162 -111 -226 -382 -304 -155 -44 -212 -69 -228 -98 -11 -22 -13 -71 -4 -95 9 -24 64 -54 115 -61 74 -11 211 32 305 94 l30 21 67 -97 c36 -53 64 -100 61 -105 -3 -4 -35 -25 -72 -47 -178 -105 -409 -126 -567 -52 -85 39 -129 82 -167 159 -30 60 -33 75 -33 157 0 78 4 97 28 147 48 97 125 144 333 203 199 56 247 81 259 137 9 37 -8 77 -43 103 -23 17 -43 20 -137 20 -106 0 -113 -1 -185 -36 -41 -20 -93 -50 -114 -67 l-40 -30 -73 88 c-40 48 -73 92 -73 96 1 32 189 133 300 163 97 26 272 28 351 5z m-4569 -366 l3 -372 45 59 c25 33 152 201 283 373 l238 312 110 0 109 0 0 -590 0 -590 -130 0 -130 0 -2 355 -3 356 -80 -105 c-44 -57 -165 -217 -270 -355 l-190 -251 -122 0 -123 0 0 583 c0 321 3 587 7 590 3 4 62 7 130 7 l123 0 2 -372z m1488 -218 l0 -590 -130 0 -130 0 0 590 0 590 130 0 130 0 0 -590z m2070 0 l0 -590 -130 0 -130 0 0 590 0 590 130 0 130 0 0 -590z m1920 355 l0 -235 235 0 235 0 2 233 3 232 128 3 127 3 0 -591 0 -590 -130 0 -130 0 0 235 0 235 -235 0 -235 0 0 -235 0 -235 -130 0 -130 0 0 590 0 590 130 0 130 0 0 -235z m2060 120 l0 -115 -315 0 -315 0 0 -125 0 -125 275 0 275 0 0 -115 0 -115 -275 0 -275 0 0 -120 0 -120 315 0 315 0 0 -115 0 -115 -445 0 -445 0 0 590 0 590 445 0 445 0 0 -115z m-8185 -1191 c25 -10 45 -58 45 -108 0 -25 -18 -101 -40 -170 -65 -207 -106 -383 -135 -588 -25 -175 -18 -278 19 -278 18 0 57 90 101 235 119 389 179 542 238 603 41 42 83 44 98 5 22 -57 -8 -232 -77 -448 -37 -116 -95 -389 -115 -538 -6 -48 -9 -130 -7 -181 4 -122 17 -140 98 -134 70 5 154 45 300 144 120 81 171 104 229 104 47 0 77 -21 91 -64 17 -52 -6 -97 -67 -131 -153 -87 -190 -113 -251 -174 -38 -37 -103 -120 -146 -184 -113 -170 -218 -247 -408 -299 -72 -20 -107 -23 -265 -23 -100 0 -184 2 -186 5 -3 3 -1 32 5 65 6 41 5 88 -2 145 -11 82 -29 142 -139 460 -62 182 -82 284 -82 431 0 138 23 263 82 445 45 137 89 213 131 228 15 5 30 8 32 5 2 -2 -6 -41 -19 -86 -28 -97 -55 -243 -54 -293 0 -22 12 11 31 90 83 349 128 479 181 528 30 28 53 26 78 -8 18 -25 18 -27 -20 -140 -22 -63 -46 -158 -55 -210 -18 -102 -40 -330 -33 -336 2 -3 12 46 21 108 46 301 164 664 250 766 28 32 41 37 71 26z m1661 -326 c8 -5 8 -25 2 -65 -18 -113 11 -243 115 -528 126 -345 140 -527 63 -825 -56 -220 -115 -342 -172 -356 -14 -4 -27 -5 -29 -2 -2 2 5 33 16 68 28 89 59 252 58 303 -1 23 -3 33 -6 22 -25 -110 -99 -403 -113 -452 -36 -120 -97 -209 -136 -201 -9 1 -25 14 -36 28 -18 25 -18 26 12 109 53 145 81 298 94 506 4 74 3 71 -19 -55 -41 -239 -113 -486 -185 -635 -58 -120 -88 -153 -127 -139 -63 22 -69 108 -17 262 124 373 196 882 124 882 -20 0 -52 -69 -96 -210 -170 -543 -224 -660 -306 -660 -39 0 -52 35 -43 125 7 79 45 243 81 349 67 201 127 550 122 709 -3 102 -5 110 -28 129 -55 44 -182 0 -369 -130 -120 -82 -163 -102 -227 -102 -58 0 -88 23 -97 75 -10 58 14 89 107 140 167 91 251 170 362 342 119 184 263 272 514 317 39 7 324 2 336 -6z"/>
 </g>

</svg>